<svg width="80" height="80" viewBox="0 0 80 80" fill="none" xmlns="http://www.w3.org/2000/svg">
<g clip-path="url(#clip0_13_31)">
<path d="M80.0002 40.2444C80.0002 18.0144 62.0902 -0.00561523 40.0002 -0.00561523C17.9002 -0.000615234 -0.00976562 18.0144 -0.00976562 40.2494C-0.00976562 60.3344 14.6202 76.9844 33.7402 80.0044V51.8794H23.5902V40.2494H33.7502V31.3744C33.7502 21.2894 39.7252 15.7194 48.8602 15.7194C53.2402 15.7194 57.8152 16.5044 57.8152 16.5044V26.4044H52.7702C47.8052 26.4044 46.2552 29.5094 46.2552 32.6944V40.2444H57.3452L55.5752 51.8744H46.2502V79.9994C65.3702 76.9794 80.0002 60.3294 80.0002 40.2444Z" fill="black"/>
</g>
<defs>
<clipPath id="clip0_13_31">
<rect width="80" height="80" fill="white" transform="translate(0 -0.000610352)"/>
</clipPath>
</defs>
</svg>
