<svg width="169" height="112" viewBox="0 0 169 112" fill="none" xmlns="http://www.w3.org/2000/svg">
<path d="M60.6783 15.9081C62.7182 15.048 64.2686 14.2038 65.9413 13.7526C67.4508 13.3067 68.6543 12.6722 69.7561 11.4455C74.1631 6.5385 77.3653 7.03039 80.118 10.316C80.2608 10.5099 80.5667 10.6985 81.0358 10.8818C84.1582 4.22985 88.6249 5.07783 92.9694 5.53275C93.7648 5.70551 94.3357 6.48109 94.9066 7.25666C95.3348 7.83834 95.4162 8.62976 95.6608 9.41589C97.1703 8.97001 98.537 8.33023 99.8833 7.88962C102.576 7.00842 103.636 7.76814 104.309 10.7241C104.431 11.1171 104.411 11.3163 104.533 11.7094C104.716 13.0931 104.532 14.8856 106.001 14.8381C107.612 14.9844 109.223 15.1308 110.57 13.1021C112.304 10.4653 113.977 8.42599 116.955 9.52068C119.627 10.4268 120.524 11.1918 121.747 15.1225C122.4 15.1013 123.195 15.2741 123.848 15.253C126.275 15.3729 128.315 16.101 129.313 19.0463C129.68 20.2255 130.455 20.5975 131.414 20.765C136.349 21.7963 141.122 22.8329 145.895 23.8695C149.403 24.55 151.238 27.2697 152.665 30.7968C156.212 39.0195 158.066 47.8926 160.572 56.7446C161.265 59.5013 161.611 62.4678 161.936 65.6335C162.323 69.7898 159.997 73.4383 157.895 76.484C152.202 84.4103 144.777 88.6209 137.209 91.0495C124.256 95.2405 111.058 98.6454 98.0028 102.244C94.3107 103.356 90.5372 103.677 86.7432 104.197C80.8075 104.984 74.729 105.578 68.8137 106.167C65.5298 106.472 62.3071 106.179 59.2476 105.881C49.1311 104.62 39.2595 102.558 29.7147 98.8962C25.962 97.4296 21.8216 96.571 18.273 94.7008C14.3981 92.8411 10.9313 90.1741 7.64814 87.3027C4.95634 85.0076 4.3658 81.255 5.44792 77.0512C7.83669 68.0408 10.0827 58.8365 12.7774 50.0147C14.5127 44.2016 17.3493 38.75 21.6131 35.2372C24.1021 33.1715 27.1824 31.6822 29.9364 30.2035C31.3031 29.5637 32.9554 29.3117 34.3221 28.672C36.362 27.8119 38.3815 27.151 40.0546 25.1117C41.5236 23.476 43.2781 22.2282 45.2362 22.1648C46.7048 22.1173 48.092 21.2783 49.2346 19.6532C50.1732 18.4317 51.5809 17.3936 52.8049 16.5599C55.5593 13.4931 58.476 13.5972 60.6783 15.9081ZM142.546 39.0649C143.586 40.0238 143.463 41.2188 142.219 42.2517C141.158 43.08 139.913 44.1129 138.71 44.7474C131.345 48.3605 123.879 51.3813 116.312 52.2218C112.355 52.7469 108.193 53.6757 104.216 54.4C100.911 54.9039 97.7702 55.4026 94.4862 55.7075C92.3444 55.9753 90.4272 55.6403 88.2854 55.9082C83.3492 56.465 78.2498 57.0271 73.4159 56.588C72.6204 56.4152 71.8046 56.4416 71.1314 56.6619C65.1957 57.4496 59.444 56.4447 53.8555 55.4345C49.0624 54.5971 44.3103 53.3613 39.7417 51.9211C36.1113 50.8475 32.5218 49.3756 29.5446 46.6928C28.2191 45.3461 26.8937 43.9994 26.4659 41.8296C25.9158 39.2667 25.9976 38.47 27.9562 36.8185C29.017 35.9902 30.0779 35.1618 31.261 34.7264C33.6682 33.4574 36.0549 32.3876 38.4416 31.3178C34.6068 32.236 30.8533 33.9456 27.263 35.6499C21.9591 38.2037 18.2457 42.6912 16.3064 48.9079C12.8772 58.5475 9.75392 68.3758 9.18013 78.717C8.97524 82.2969 9.89254 84.4508 11.993 86.1695C17.2543 90.3664 23.5565 92.3461 29.5118 94.5355C33.7336 96.1855 38.343 97.2273 42.5852 98.6781C47.7655 100.496 53.2318 101.113 58.7389 101.331C64.0828 101.556 69.4881 101.182 74.873 101.008C77.647 100.918 80.5842 100.823 83.4195 100.136C90.722 98.7081 98.0654 96.8823 105.225 95.261C115.567 92.7426 125.848 90.8217 136.149 87.1136C142.738 84.7166 148.246 80.1711 153.51 74.8393C156.407 71.9664 157.938 68.1451 157.144 63.208C155.881 54.9113 154.068 47.228 151.418 39.7702C148.87 32.9047 145.629 26.4587 138.613 25.0977C136.532 24.768 134.452 24.4384 132.371 24.1087C130.475 23.5745 128.68 23.6326 126.844 25.6772C126.519 17.7472 125.112 18.7853 119.074 18.9807C118.952 18.5877 118.687 18.0007 118.748 17.4032C118.646 16.8109 118.708 16.2134 118.606 15.6212C118.158 13.6505 116.771 12.9014 115.037 13.9501C113.67 14.5898 112.752 15.6121 112.405 17.41C112.119 18.6103 111.853 19.6115 111.343 21.4146C110.038 19.8687 109.018 18.7107 107.55 17.1701C106.958 18.1818 106.53 19.1882 105.714 20.8028C104.307 18.6647 102.961 17.5172 102.492 15.7457C101.29 11.6158 101.29 11.6158 97.4344 12.7332C95.619 12.9905 94.1709 12.8388 93.0696 12.4775C92.6005 12.2941 92.2541 10.9158 92.1932 9.92516C91.8672 8.34761 90.929 7.98095 89.6441 7.82403C87.2169 7.70408 84.932 9.36614 83.8298 12.181C83.5848 12.983 83.034 13.5964 82.4422 14.6081C80.5254 12.685 77.6696 13.5715 76.1405 11.0403C76.0182 10.6472 75.0187 10.8781 74.5087 11.0931C73.1419 11.7329 72.0402 12.9596 71.5707 14.3644C71.7334 15.9473 73.467 16.4867 72.569 18.8979C71.3249 18.3426 70.0604 17.9865 68.8163 17.4313C66.7972 16.5041 65.4714 16.7455 63.6556 18.5909C63.1047 19.2043 62.5129 20.216 62.1252 20.8241C60.0653 20.2952 60.0653 20.2952 58.3116 18.3668C57.4348 17.4026 56.6598 17.0307 55.4358 17.8644C52.8245 19.537 50.3356 21.6027 49.478 25.2037C49.233 26.0057 48.8453 26.6138 48.6003 27.4157C47.6417 27.2483 47.0095 27.0702 46.214 26.8974C42.5427 26.2222 41.4819 27.0506 40.1957 31.6581C39.6648 33.6604 39.6031 35.846 39.215 38.0422C37.42 38.1003 35.5028 37.7653 33.8097 38.4157C31.7902 39.0766 30.6067 41.1 29.6881 43.7104C30.4427 44.2816 30.9931 45.2563 31.7681 45.6282C34.2358 46.938 36.8462 48.4416 39.518 49.3477C46.3097 51.3115 53.0809 53.4744 60.1994 53.8396C67.481 54.1994 74.7422 54.7584 81.9833 53.9285C90.3871 52.8624 98.4642 53.3951 106.95 51.5323C115.435 49.6695 124.023 48.399 132.529 44.7489C136.262 43.2385 139.628 42.137 142.546 39.0649ZM28.3426 40.9748C29.7912 39.5383 30.9338 37.9132 32.5047 36.8698C34.0755 35.8264 35.7277 35.5744 37.9104 34.9082C37.2986 34.531 37.0336 33.944 36.8704 33.9493C34.1164 35.4281 31.3829 36.7076 28.7716 38.3802C27.7108 39.2086 27.7513 40.3984 28.3426 40.9748Z" fill="#F2662B"/>
<path d="M121.036 35.7901C122.274 36.3292 123.046 36.6898 124.122 37.2324C122.123 37.8411 122.123 37.8411 121.036 35.7901ZM131.018 39.347C130.97 38.2166 130.922 37.0862 130.873 35.9557C131.758 35.1824 132.225 35.3609 132.398 36.8659C132.303 37.8108 131.865 38.9516 131.018 39.347ZM93.5995 19.4082C95.334 21.4453 95.334 21.4453 94.1648 25.0534C93.8685 23.174 93.877 21.4766 93.5995 19.4082ZM94.7549 40.1268C93.3357 39.7801 92.1163 39.052 91.8957 36.4167C93.6008 37.1344 94.0969 38.6323 94.7549 40.1268ZM57.0372 29.6232C56.1227 29.0772 54.304 29.4934 53.9509 28.181C56.1312 27.3798 56.2741 27.5653 57.0372 29.6232ZM89.2356 46.8456C87.0553 47.6468 85.5226 48.4341 84.4357 46.3831C86.4541 45.5854 86.4541 45.5854 89.2356 46.8456ZM105.226 32.3586C106.424 30.0699 107.404 28.3516 108.384 26.6334C109.576 29.2478 108.358 31.7255 105.226 32.3586ZM99.2329 43.802C100.9 44.8976 102.262 45.8112 103.787 46.7213C101.207 48.2854 99.8446 47.3718 99.2329 43.802ZM61.6386 48.1933C59.0294 48.438 57.5241 47.3389 57.2467 45.2706C57.1795 44.3291 57.1984 44.1401 58.7879 42.7859C57.9047 46.765 60.1333 47.0943 61.6386 48.1933ZM50.3345 32.0303C48.5641 33.577 46.2787 33.8147 46.2428 37.3984C44.7564 36.1103 45.0508 34.784 45.6501 33.6396C46.6489 31.7324 48.1627 31.1341 50.3345 32.0303ZM120.392 42.2156C118.965 43.5663 117.526 43.4086 115.927 43.2545C114.812 43.0899 113.879 42.7328 113.992 41.5989C116.078 41.7426 118.164 41.8863 120.392 42.2156ZM45.9418 43.6279C47.4178 43.4076 48.551 43.3832 49.5791 42.7954C50.4265 42.4 51.1687 41.4412 51.873 40.8603C52.9788 42.7223 52.922 43.2892 51.4082 43.8875C49.5517 44.6817 47.8571 45.4725 45.9418 43.6279ZM83.0629 43.9611C80.2644 46.0956 78.6076 46.5084 77.4072 45.5914C76.5116 44.8563 76.2635 44.1073 76.9196 42.396C77.3106 43.3305 77.7205 44.076 78.2734 45.007C79.6064 44.6012 81.0824 44.3809 83.0629 43.9611ZM90.0778 22.3126C86.0031 24.286 83.3646 23.2113 83.8861 19.6171C85.6584 21.2762 87.2878 22.7497 90.0778 22.3126ZM112.212 27.1168C112.906 25.0275 113.934 24.4397 115.696 24.5904C117.62 24.7376 118.497 25.6616 118.555 28.3004C116.84 26.0744 114.992 25.1712 112.212 27.1168ZM75.7616 32.9921C74.0376 32.4635 72.0949 32.5052 71.7313 29.6844C71.416 27.994 71.8345 27.0421 73.6048 25.4955C73.5963 27.1928 73.1022 28.9006 73.6361 30.0206C74.0082 31.1441 75.2465 31.6832 76.304 32.4147C75.9803 32.4217 75.9613 32.6107 75.7616 32.9921ZM114.257 38.9531C110.742 36.9544 109.676 37.9202 108.65 41.7137C107.393 41.3636 107.487 40.4187 107.925 39.2779C108.6 37.3776 110.027 36.0268 111.646 35.992C113.265 35.9572 113.856 36.5102 114.257 38.9531ZM95.8881 40.1024C98.0645 32.8897 96.8745 33.481 93.969 31.8463C95.5963 30.1141 96.5677 30.0932 97.6356 32.3332C99.1703 34.7517 98.6193 37.0265 95.8881 40.1024ZM68.0098 32.9702C65.9052 33.0155 64.5533 33.6103 63.3927 35.521C62.0701 37.4352 62.1184 38.5656 63.8235 39.2833C64.4332 39.6473 65.0618 39.8224 65.8334 40.1829C63.9769 40.9772 62.3959 40.634 61.7189 39.3285C60.8801 38.0265 61.0505 36.3257 62.3541 34.6005C63.2771 33.4492 64.505 32.4799 65.7329 31.5106C66.4373 30.9297 67.4086 30.9088 68.0098 32.9702ZM142.75 38.3404C142.34 37.5949 141.949 36.6605 141.539 35.915C140.595 34.0495 139.071 33.1394 136.71 34.1331C136.073 35.6554 136.979 37.8988 134.922 39.0745C134.511 35.1232 134.511 35.1232 130.995 33.1245C130.661 31.6231 132.488 29.5094 130.802 28.6028C129.726 28.0602 128.069 28.473 126.631 28.3153C127.306 26.4151 128.172 25.8307 129.934 25.9814C131.21 26.1425 132.648 26.3002 133.905 26.6503C135.648 26.99 137.173 27.9001 137.631 29.776C137.965 31.2774 138.899 31.6345 139.813 32.1806C140.871 32.9121 141.909 33.8327 142.948 34.7532C143.806 35.8662 143.835 37.1856 142.75 38.3404ZM135.642 31.8931C135.661 31.7041 135.861 31.3227 135.879 31.1337C135.308 30.3917 134.555 29.8421 133.535 28.7326C133.222 30.248 132.984 31.0074 132.528 32.3372C134.004 32.1169 134.813 32.0995 135.642 31.8931Z" fill="black"/>
<path d="M53.4875 20.557C55.5782 19.8627 57.1463 19.1683 58.8885 18.8211C60.4566 18.474 61.6762 17.9532 62.7215 16.9117C66.903 12.7457 70.3875 13.2664 73.6978 16.2174C73.872 16.391 74.2205 16.5645 74.7432 16.7381C77.3566 11.0098 82.2349 11.8777 86.9391 12.3985C87.8102 12.5721 88.5071 13.2664 89.204 13.9608C89.7267 14.4815 89.9009 15.1759 90.2494 15.8702C91.8174 15.523 93.2112 15.0023 94.605 14.6551C97.3927 13.9608 98.6123 14.6551 99.6576 17.2589C99.8318 17.606 99.8318 17.7796 100.006 18.1268C100.355 19.3419 100.355 20.9042 101.923 20.9042C103.665 21.0777 105.407 21.2513 106.627 19.5155C108.195 17.2589 109.763 15.523 113.073 16.5645C116.035 17.4325 117.08 18.1268 118.823 21.5985C119.519 21.5985 120.391 21.7721 121.088 21.7721C123.701 21.9457 125.966 22.64 127.36 25.2438C127.882 26.2853 128.753 26.6325 129.799 26.806C135.2 27.8476 140.427 28.8891 145.653 29.9306C149.486 30.6249 151.751 33.0551 153.668 36.1796C158.372 43.4702 161.334 51.2815 164.993 59.0928C166.038 61.523 166.735 64.1268 167.432 66.9042C168.303 70.5494 166.212 73.674 164.296 76.2777C159.069 83.0476 151.577 86.5193 143.737 88.4287C130.322 91.7268 116.558 94.3306 102.968 97.1079C99.1349 97.9759 95.1277 98.1494 91.1205 98.4966C84.8483 99.0174 78.4019 99.3645 72.1298 99.7117C68.6452 99.8853 65.1607 99.5381 61.8504 99.191C50.8741 97.8023 40.072 95.7193 29.4442 92.2476C25.2628 90.8589 20.7329 89.991 16.7256 88.2551C12.37 86.5193 8.36276 84.0891 4.52977 81.4853C1.39369 79.4023 0.348325 76.1042 1.04523 72.4589C2.61327 64.6476 4.00709 56.6627 5.92358 49.0249C7.14317 43.991 9.58235 39.3042 13.7638 36.3532C16.203 34.6174 19.339 33.4023 22.1267 32.1872C23.5205 31.6664 25.2628 31.4928 26.6566 30.9721C28.7473 30.2777 30.838 29.757 32.4061 28.0211C33.7999 26.6325 35.5421 25.591 37.6329 25.591C39.2009 25.591 40.5947 24.8966 41.6401 23.5079C42.5112 22.4664 43.905 21.5985 45.1246 20.9042C47.738 18.3004 50.8741 18.474 53.4875 20.557ZM143.737 43.123C144.957 43.991 144.957 45.0325 143.737 45.9004C142.692 46.5947 141.472 47.4627 140.252 47.9834C132.761 50.9343 125.095 53.3645 117.08 53.8853C112.899 54.2325 108.543 54.9268 104.362 55.4476C100.877 55.7947 97.5669 56.1419 94.0824 56.3155C91.8174 56.4891 89.7267 56.1419 87.4617 56.3155C82.2349 56.6627 76.8339 57.0098 71.6071 56.4891C70.736 56.3155 69.8648 56.3155 69.1679 56.4891C62.8958 57.0098 56.6236 55.9683 50.5256 54.9268C45.2988 54.0589 40.072 52.8438 35.0195 51.4551C31.0122 50.4136 27.005 49.0249 23.5205 46.5947C21.9524 45.3796 20.3844 44.1645 19.6875 42.2551C18.8164 39.9985 18.8164 39.3042 20.7329 37.9155C21.7782 37.2211 22.8236 36.5268 24.0432 36.1796C26.4823 35.1381 28.9215 34.2702 31.3607 33.4023C27.3535 34.0966 23.5205 35.4853 19.8617 36.874C14.4607 38.957 10.9762 42.7759 9.58235 48.157C6.96894 56.4891 4.704 64.9947 5.22668 74.0211C5.4009 77.1457 6.62049 79.0551 9.05966 80.6174C15.1576 84.4362 22.1267 86.3457 28.7473 88.4287C33.4514 89.991 38.504 91.0325 43.2081 92.4211C48.9576 94.157 54.8813 94.8513 60.805 95.1985C66.5545 95.5457 72.304 95.3721 78.0535 95.3721C81.0153 95.3721 84.1514 95.3721 87.1133 94.8513C94.7793 93.8098 102.445 92.4211 109.937 91.206C120.739 89.2966 131.541 87.9079 142.169 84.957C148.964 83.0476 154.365 79.2287 159.417 74.7155C162.205 72.2853 163.425 68.9872 162.031 64.6476C159.766 57.357 156.978 50.5872 153.319 43.991C149.835 37.9155 145.653 32.1872 137.988 30.7985C135.723 30.4513 133.458 30.1042 131.193 29.757C129.102 29.2362 127.185 29.2362 125.443 30.9721C124.224 24.0287 122.83 24.8966 116.383 24.8966C116.209 24.5494 115.861 24.0287 115.861 23.5079C115.686 22.9872 115.686 22.4664 115.512 21.9457C114.815 20.2098 113.247 19.5155 111.505 20.3834C110.111 20.9042 109.24 21.7721 109.066 23.3343C108.892 24.3759 108.717 25.2438 108.369 26.806C106.801 25.4174 105.581 24.3759 103.839 22.9872C103.316 23.8551 102.968 24.723 102.271 26.1117C100.529 24.2023 98.9607 23.1608 98.2638 21.5985C96.5215 17.9532 96.5215 17.9532 92.5143 18.8211C90.5978 18.9947 89.0298 18.8211 87.8102 18.474C87.2875 18.3004 86.7648 17.0853 86.5906 16.2174C86.0679 14.8287 85.0226 14.4815 83.6287 14.3079C81.0153 14.1343 78.7504 15.523 77.8793 17.9532C77.705 18.6476 77.1824 19.1683 76.6597 20.0362C74.3947 18.3004 71.4329 18.9947 69.5164 16.7381C69.3421 16.391 68.2968 16.5645 67.7741 16.7381C66.3803 17.2589 65.3349 18.3004 64.9865 19.5155C65.3349 20.9042 67.2514 21.4249 66.5545 23.5079C65.1607 22.9872 63.7669 22.64 62.3731 22.1193C60.1081 21.2513 58.7143 21.4249 56.972 22.9872C56.4494 23.5079 55.9267 24.3759 55.5782 24.8966C53.3133 24.3759 53.3133 24.3759 51.2226 22.64C50.1772 21.7721 49.3061 21.4249 48.0865 22.1193C45.4731 23.5079 43.0339 25.2438 42.5112 28.3683C42.337 29.0627 41.9885 29.5834 41.8143 30.2777C40.7689 30.1042 40.072 29.9306 39.2009 29.757C35.1937 29.0627 34.1483 29.757 33.2772 33.7494C32.9287 35.4853 33.103 37.3947 32.9287 39.3042C31.0122 39.3042 28.9215 38.957 27.1793 39.4777C25.0885 39.9985 24.0432 41.7344 23.3463 43.991C24.2174 44.5117 24.9143 45.3796 25.7854 45.7268C28.5731 46.9419 31.5349 48.3306 34.4968 49.1985C41.9885 51.1079 49.4803 53.191 57.1463 53.7117C64.9865 54.2325 72.8267 54.9268 80.4927 54.406C89.3782 53.7117 98.0896 54.406 106.975 53.0174C115.861 51.6287 124.92 50.7608 133.632 47.8098C137.465 46.5947 140.949 45.7268 143.737 43.123ZM21.604 41.5608C22.9978 40.3457 24.0432 38.957 25.6112 38.0891C27.1793 37.2211 28.9215 37.0476 31.1865 36.5268C30.4896 36.1796 30.1411 35.6589 29.9669 35.6589C27.1793 36.874 24.3916 37.9155 21.7782 39.3042C20.7329 39.9985 20.9071 41.04 21.604 41.5608Z" fill="black"/>
<path d="M120.913 40.693C122.307 41.2137 123.178 41.5609 124.398 42.0816C122.307 42.6024 122.307 42.6024 120.913 40.693ZM132.064 44.1646C131.89 43.1231 131.715 42.0816 131.541 41.0401C132.412 40.3458 132.935 40.5194 133.284 41.908C133.284 42.776 132.935 43.8175 132.064 44.1646ZM89.5526 25.0703C91.6433 26.9797 91.6433 26.9797 90.7722 30.2779C90.2495 28.542 90.0753 26.9797 89.5526 25.0703ZM93.0371 44.1646C91.4691 43.8175 90.0753 43.1231 89.5526 40.693C91.4691 41.3873 92.166 42.776 93.0371 44.1646ZM51.2227 33.7496C50.1773 33.2288 48.2608 33.576 47.7382 32.3609C50.0031 31.6665 50.1773 31.8401 51.2227 33.7496ZM87.8103 50.2401C85.5454 50.9345 83.9773 51.6288 82.5835 49.7194C84.6742 49.025 84.6742 49.025 87.8103 50.2401ZM103.491 37.2213C104.536 35.1382 105.407 33.576 106.278 32.0137C107.846 34.4439 106.801 36.7005 103.491 37.2213ZM98.2639 47.6363C100.18 48.6779 101.748 49.5458 103.491 50.4137C100.877 51.8024 99.3093 50.9345 98.2639 47.6363ZM58.1918 50.9345C55.4041 51.108 53.6619 50.0665 53.1392 48.1571C52.965 47.2892 52.965 47.1156 54.533 45.9005C54.0103 49.5458 56.4495 49.893 58.1918 50.9345ZM44.2536 35.8326C42.5113 37.2213 40.0722 37.3948 40.4206 40.693C38.6784 39.4779 38.8526 38.2628 39.3753 37.2213C40.2464 35.4854 41.8144 34.9647 44.2536 35.8326ZM120.913 46.5948C119.52 47.8099 117.952 47.6364 116.209 47.4628C114.99 47.2892 113.944 46.942 113.944 45.9005C116.209 46.0741 118.474 46.2477 120.913 46.5948ZM40.7691 46.4213C42.3371 46.2477 43.5567 46.2477 44.6021 45.7269C45.4732 45.3797 46.1701 44.5118 46.867 43.9911C48.2608 45.7269 48.2608 46.2477 46.6928 46.7684C44.7763 47.4628 43.034 48.1571 40.7691 46.4213ZM80.8412 47.4628C78.0536 49.3722 76.3113 49.7194 74.9175 48.8514C73.8722 48.1571 73.5237 47.4628 74.0464 45.9005C74.5691 46.7684 75.0918 47.4628 75.7887 48.3307C77.1825 47.9835 78.7505 47.8099 80.8412 47.4628ZM86.0681 27.6741C81.8866 29.4099 78.9248 28.3684 79.099 25.0703C81.1897 26.6326 83.1062 28.0213 86.0681 27.6741ZM110.46 32.5345C110.982 30.625 112.028 30.1043 113.944 30.2779C116.035 30.4514 117.08 31.3194 117.429 33.7496C115.338 31.6665 113.247 30.7986 110.46 32.5345ZM71.7815 37.2213C69.865 36.7005 67.7742 36.7005 67.0773 34.0967C66.5546 32.5345 66.9031 31.6665 68.6454 30.2779C68.8196 31.8401 68.4711 33.4024 69.1681 34.4439C69.6907 35.4854 71.0845 36.0062 72.3041 36.7005C71.9557 36.7005 71.9557 36.8741 71.7815 37.2213ZM113.944 43.4703C109.937 41.5609 108.892 42.4288 108.195 45.9005C106.801 45.5533 106.801 44.6854 107.149 43.6439C107.672 41.908 109.066 40.693 110.808 40.693C112.551 40.693 113.247 41.2137 113.944 43.4703ZM94.2567 44.1646C95.8247 37.5684 94.6052 38.0892 91.2949 36.5269C92.8629 34.9647 93.9083 34.9647 95.3021 37.0477C97.2186 39.3043 96.8701 41.3873 94.2567 44.1646ZM63.4186 37.0477C61.1536 37.0477 59.7598 37.5684 58.7144 39.3043C57.4949 41.0401 57.6691 42.0816 59.5856 42.776C60.2825 43.1231 60.9794 43.2967 61.8505 43.6439C59.934 44.3382 58.1918 43.9911 57.3206 42.776C56.2753 41.5609 56.2753 39.9986 57.4949 38.4363C58.366 37.3948 59.5856 36.5269 60.8052 35.659C61.5021 35.1382 62.5474 35.1382 63.4186 37.0477ZM144.608 43.4703C144.086 42.776 143.563 41.908 143.04 41.2137C141.821 39.4779 140.078 38.6099 137.639 39.4779C137.117 40.8665 138.336 42.9496 136.245 43.9911C135.374 40.3458 135.374 40.3458 131.367 38.4363C130.844 37.0477 132.587 35.1382 130.67 34.2703C129.451 33.7496 127.708 34.0967 126.14 33.9231C126.663 32.1873 127.534 31.6665 129.451 31.8401C130.844 32.0137 132.412 32.1873 133.806 32.5345C135.723 32.8816 137.465 33.7496 138.162 35.4854C138.685 36.8741 139.73 37.2213 140.775 37.742C141.995 38.4363 143.214 39.3043 144.434 40.1722C145.479 41.2137 145.654 42.4288 144.608 43.4703ZM136.245 37.3948C136.245 37.2213 136.42 36.8741 136.42 36.7005C135.723 36.0062 134.852 35.4854 133.632 34.4439C133.458 35.8326 133.284 36.5269 132.935 37.742C134.503 37.5684 135.374 37.5684 136.245 37.3948Z" fill="black"/>
</svg>
