<svg width="1440" height="858" viewBox="0 0 1440 858" fill="none" xmlns="http://www.w3.org/2000/svg">
<path d="M1032.47 82.7904C1157.26 150.068 1351.6 76.9401 1440 40.8636V730.217H0V113.992C20.4739 103.591 129.083 70.3099 399.729 20.3878C670.375 -29.5343 934.326 41.1887 1032.47 82.7904Z" fill="black" fill-opacity="0.12"/>
<path d="M407.528 78.7902C522 43.2171 769.625 -33.5341 1040.27 16.3878C1310.92 66.3099 1419.53 99.5919 1440 109.992V726.218H0V36.8634C88.3953 72.9399 243 122.717 407.528 78.7902Z" fill="#FA9529"/>
<path d="M407.528 778.428C522 814.001 769.625 890.752 1040.27 840.83C1310.92 790.908 1419.53 757.626 1440 747.226V131H0V820.354C88.3953 784.278 243 734.501 407.528 778.428Z" fill="#FA9529"/>
</svg>
