<svg width="80" height="80" viewBox="0 0 80 80" fill="none" xmlns="http://www.w3.org/2000/svg">
<g clip-path="url(#clip0_231_605)">
<path d="M80.0002 40.2441C80.0002 18.0141 62.0902 -0.00585938 40.0002 -0.00585938C17.9002 -0.000859375 -0.00976562 18.0141 -0.00976562 40.2491C-0.00976562 60.3341 14.6202 76.9841 33.7402 80.0041V51.8791H23.5902V40.2491H33.7502V31.3741C33.7502 21.2891 39.7252 15.7191 48.8602 15.7191C53.2402 15.7191 57.8152 16.5041 57.8152 16.5041V26.4041H52.7702C47.8052 26.4041 46.2552 29.5091 46.2552 32.6941V40.2441H57.3452L55.5752 51.8741H46.2502V79.9991C65.3702 76.9791 80.0002 60.3291 80.0002 40.2441Z" fill="black"/>
</g>
<defs>
<clipPath id="clip0_231_605">
<rect width="80" height="80" fill="white"/>
</clipPath>
</defs>
</svg>
