<svg width="80" height="80" viewBox="0 0 80 80" fill="none" xmlns="http://www.w3.org/2000/svg">
<path d="M40 0C62.0914 0 80 17.91 80 40.0029C79.9999 61.5941 62.8952 79.1857 41.498 79.9736C41.6432 79.8792 41.7791 79.7661 41.8975 79.6279C41.8975 79.6279 43.3963 78.1304 45.5186 76.1328C54.7568 67.1437 60 54.658 60 41.5488V39.0527C60 33.8091 58.0021 28.69 54.2568 25.0693C50.5116 21.3239 45.5179 19.2012 40.3994 19.2012C35.1563 19.2013 30.1632 21.324 26.543 25.0693C22.9226 28.8148 20.7998 33.8091 20.7998 39.0527V41.5488C20.7998 54.5332 26.043 67.0188 35.2812 76.1328C37.3847 78.1126 38.8751 79.6017 38.9014 79.6279C39.0505 79.7771 39.216 79.8988 39.3887 79.9971C17.5793 79.6703 0.000104178 61.8916 0 40.0029C0 17.91 17.9086 0 40 0ZM40.3994 23.5713C44.3942 23.5713 48.2644 25.194 51.1357 28.0654C54.0071 30.937 55.6309 34.9327 55.6309 39.0527V41.5488C55.6309 53.4095 50.8866 64.7717 42.3975 73.0117C41.1492 74.1353 41.0236 74.3846 40.3994 75.0088C39.7754 74.3848 39.5256 74.135 38.4023 73.0117C29.9132 64.7717 25.1689 53.4095 25.1689 41.5488V39.0527C25.1689 34.9328 26.7918 30.937 29.6631 28.0654C32.4095 25.194 36.2798 23.5714 40.3994 23.5713ZM40.4014 30.1875C35.6576 30.1875 31.6624 34.0578 31.6621 38.9268C31.6621 43.671 35.5326 47.667 40.4014 47.667C45.27 47.6668 49.1396 43.7957 49.1396 38.9268C49.1394 34.058 45.145 30.1877 40.4014 30.1875ZM40.4014 34.4326C42.7732 34.4328 44.7705 36.3059 44.7705 38.8027C44.7703 41.2994 42.8979 43.1717 40.4014 43.1719C37.9047 43.1719 36.0314 41.2995 36.0312 38.8027C36.0312 36.3057 37.9046 34.4326 40.4014 34.4326Z" fill="black"/>
</svg>
