<svg width="1440" height="727" viewBox="0 0 1440 727" fill="none" xmlns="http://www.w3.org/2000/svg">
<path d="M1032.47 647.427C1157.26 580.149 1351.6 653.277 1440 689.354V0H0V616.226C20.4739 626.626 129.083 659.907 399.729 709.83C670.375 759.752 934.326 689.029 1032.47 647.427Z" fill="black" fill-opacity="0.12"/>
<path d="M407.529 647.427C243 603.5 88.3954 653.277 0 689.354V0H1440V616.226C1419.53 626.626 1310.92 659.908 1040.27 709.83C769.625 759.752 522 683 407.529 647.427Z" fill="#FA9529"/>
<path d="M804.633 325.067L804.646 325.073L804.657 325.079L805.381 325.417C812.723 329.014 815.944 335.418 817.64 341.184L817.803 341.754C818.598 344.599 819.074 347.381 819.486 349.585L819.65 350.454C819.812 351.286 819.967 352.01 820.132 352.637L820.299 353.216C820.405 353.557 820.502 353.813 820.588 354L820.708 354.232L820.715 354.243L821.399 355.416L821.402 355.423L821.406 355.429C824.782 361.346 826.569 366.46 826.828 371.178L826.847 371.626C827.006 376.24 825.682 380.215 823.402 383.928L823.391 383.946L822.933 384.668L822.928 384.678L822.922 384.687C818.458 391.508 810.231 394.174 802.245 392.971L801.473 392.843C793.82 391.448 786.238 386.492 781.602 377.899C770.616 380.376 761.808 378.419 755.776 373.916L755.18 373.457C748.978 368.502 746.217 360.939 747.487 353.947L747.489 353.934L747.492 353.92L747.616 353.299L747.619 353.285L747.623 353.271C748.97 347.157 751.626 343.085 756.063 339.862L756.46 339.58C760.602 336.687 766.203 334.499 773.135 331.803L773.887 331.499C775.627 330.771 777.451 329.847 779.455 328.832L781.179 327.965C782.937 327.089 784.795 326.204 786.701 325.454L786.702 325.455L787.667 325.088C792.542 323.309 798.084 322.384 803.892 324.751L803.916 324.761L804.633 325.067ZM787.952 346.225C784.803 344.792 780.706 344.705 776.853 347.878C772.805 351.211 772.639 356.179 774.083 360.982C775.53 365.795 778.693 370.89 782.044 375.192L782.592 375.894L783.471 375.75C785.898 375.349 791.846 374.442 797.023 372.284C799.61 371.205 802.132 369.764 803.932 367.811C805.775 365.812 806.858 363.268 806.458 360.168L806.386 359.682C805.587 354.736 802.658 352.119 799.484 351.066C797.892 350.539 796.269 350.411 794.867 350.535C794.234 350.591 793.612 350.704 793.036 350.869C792.711 350.232 792.28 349.618 791.789 349.059C790.815 347.951 789.496 346.927 787.952 346.225ZM765.251 296.187C767.31 296.411 769.015 297.604 770.356 299.184C771.696 300.764 772.764 302.832 773.571 305.072C775.182 309.546 775.861 315.021 775.375 319.494C774.888 323.985 773.23 327.946 770.773 330.728C768.307 333.521 764.974 335.169 761.284 334.769C754.474 334.029 746.645 327.659 747.534 317.022L747.584 316.512C748.288 310.029 750.868 304.804 754.159 301.267C757.413 297.77 761.517 295.782 765.251 296.187ZM845.37 330.424C847.436 330.264 849.484 330.635 851.092 331.94C854.008 334.308 855.484 338.623 855.29 343.396C855.094 348.224 853.198 353.733 849.088 358.796L848.761 359.189C841.831 367.309 831.794 366.23 826.476 361.912C823.594 359.572 822.42 356.045 822.668 352.328C822.915 348.625 824.563 344.659 827.409 341.152C830.246 337.659 834.613 334.289 838.925 332.284C841.084 331.281 843.304 330.584 845.37 330.424ZM809.333 279.998C813.416 281.7 814.557 286.108 814.342 290.76C814.122 295.511 812.495 301.218 810.217 306.682C806.835 314.794 802.626 319.384 798.222 321.53C793.796 323.686 789.404 323.258 785.932 321.81C782.486 320.374 778.954 317.522 776.98 313.313C774.986 309.059 774.658 303.579 777.369 297.075C779.765 291.33 784.929 285.95 790.797 282.557C796.638 279.18 803.533 277.58 809.333 279.998ZM830.847 290.757C841.224 295.084 844.896 312.75 840.405 323.521C835.265 335.849 825.077 336.67 818.768 334.04C812.46 331.409 806.639 323.913 813.231 308.103C817.722 297.332 824.538 288.127 830.847 290.757Z" fill="#F2662B"/>
<path d="M1319.2 334.177C1322.51 332.718 1325.71 334.557 1328.19 337.151C1330.74 339.816 1333.07 343.763 1334.9 347.92C1337.63 354.111 1337.98 358.95 1336.81 362.626C1336.72 362.914 1336.62 363.193 1336.51 363.464C1337.73 362.27 1339.19 361.227 1340.95 360.43L1340.98 360.42L1341.54 360.178L1341.55 360.172L1341.56 360.167C1347.92 357.565 1353.6 359.278 1357.9 361.489L1358.72 361.92C1360.58 362.941 1362.26 364.064 1363.59 364.927L1364.67 365.615C1365 365.818 1365.3 365.996 1365.57 366.148L1365.96 366.349C1366.18 366.46 1366.34 366.526 1366.45 366.563L1366.57 366.6L1366.59 366.603L1367.6 366.843L1367.62 366.847L1367.74 366.878C1367.17 366.462 1366.63 365.981 1366.13 365.444C1364.16 363.295 1362.8 360.223 1362.35 356.741C1361.91 353.276 1362.35 349.03 1363.52 345.54C1364.11 343.792 1364.91 342.153 1365.95 340.883C1366.98 339.612 1368.34 338.605 1370.03 338.387C1373.03 338 1376.3 339.531 1378.88 342.2C1381.51 344.908 1383.59 348.93 1384.24 353.943L1384.28 354.341C1385.15 362.665 1379.1 367.803 1373.75 368.495C1373.51 368.526 1373.27 368.544 1373.04 368.553C1375.6 369.572 1377.73 370.799 1379.48 372.287L1380.01 372.762C1382.61 375.164 1384.1 378.037 1384.95 381.253L1384.96 381.263L1384.96 381.274L1385.12 381.918L1385.13 381.939C1386.63 388.331 1383.61 394.551 1378.57 398.467L1378.08 398.839C1373.22 402.383 1366.46 404.018 1359.25 402.213C1354.79 409.447 1349.03 413.305 1343.24 414.292L1342.65 414.382C1336.4 415.24 1330.49 412.687 1327.13 408.083L1327.13 408.072L1327.12 408.061L1326.83 407.656L1326.82 407.631C1324.05 403.535 1323.15 399.748 1323.72 395.41L1323.72 395.409L1323.84 394.651C1324.11 393.072 1324.56 391.424 1325.15 389.677C1324.97 389.858 1324.78 390.034 1324.58 390.202C1320.46 393.69 1312.59 394.689 1307.03 388.435L1306.77 388.131C1303.5 384.273 1301.94 380.023 1301.71 376.258C1301.48 372.549 1302.56 369.103 1304.86 367.153C1306.16 366.053 1307.82 365.728 1309.46 365.821C1311.09 365.914 1312.84 366.428 1314.53 367.172C1315.53 367.614 1316.54 368.151 1317.52 368.755C1315.23 367.219 1313.18 364.812 1311.64 361.326C1309.68 356.891 1309.43 351.12 1310.65 346.026C1311.87 340.962 1314.66 336.178 1319.2 334.177ZM1344.6 380.877C1342.04 381.91 1339.74 384.24 1339.45 388.193C1339.15 392.398 1341.97 395.21 1345.44 396.967C1348.71 398.619 1352.9 399.547 1356.84 399.996L1357.62 400.08L1358.51 400.167L1359.01 399.43C1360.06 397.883 1362.72 394.079 1364.27 390.033C1365.04 388.01 1365.59 385.8 1365.45 383.703C1365.31 381.543 1364.43 379.501 1362.41 378.019L1362.09 377.795C1358.82 375.556 1355.69 375.799 1353.32 377.061C1352.15 377.689 1351.18 378.552 1350.49 379.427C1350.24 379.743 1350 380.08 1349.81 380.424C1349.33 380.307 1348.83 380.24 1348.34 380.22C1347.17 380.174 1345.85 380.373 1344.6 380.877ZM1318.11 369.126C1320.2 370.488 1322.14 372.147 1323.59 373.862C1325.86 376.542 1327.21 379.613 1327.47 382.522C1327.5 382.84 1327.51 383.158 1327.51 383.473C1327.76 382.842 1328.03 382.199 1328.3 381.542L1328.52 380.978C1329.02 379.663 1329.46 378.194 1329.96 376.545L1330.39 375.13C1330.83 373.688 1331.33 372.17 1331.93 370.693L1332.24 369.951C1332.52 369.313 1332.82 368.675 1333.16 368.045C1332.26 368.781 1331.29 369.359 1330.3 369.792C1327.63 370.973 1324.1 371.44 1320.63 370.284C1319.77 369.998 1318.93 369.614 1318.11 369.126ZM1336.62 328.259C1344.48 324.794 1356.19 332.063 1359.79 340.22C1363.91 349.555 1359 355.626 1354.22 357.733C1349.44 359.84 1342.23 359.114 1336.95 347.141C1333.35 338.985 1331.85 330.366 1336.62 328.259Z" fill="#F2662B"/>
<path d="M1089.73 200.595C1092.75 200.33 1094.74 202.665 1095.93 205.225C1097.17 207.874 1097.89 211.402 1098.2 214.937C1098.62 219.631 1097.91 223.103 1096.46 225.573C1097.29 225.303 1098.18 225.112 1099.13 225.02L1099.16 225.017L1099.65 224.98L1099.66 224.979L1099.67 224.978C1101.22 224.884 1102.65 225.034 1103.95 225.358C1101.81 223.643 1100.06 220.438 1099.57 214.907C1098.97 208.007 1100.02 201.289 1104.06 200.934C1110.71 200.35 1117.5 208.628 1118.11 215.528C1118.8 223.427 1113.67 226.666 1109.63 227.021C1109.06 227.071 1108.47 227.064 1107.87 226.993C1109.44 227.932 1110.77 229.091 1111.88 230.241L1112.38 230.772C1113.52 232.017 1114.49 233.286 1115.25 234.243L1115.84 234.979C1115.17 232.991 1115.05 230.648 1115.53 228.259C1116.08 225.546 1117.49 222.487 1119.26 220.175C1120.15 219.017 1121.17 217.979 1122.3 217.274C1123.42 216.57 1124.76 216.131 1126.17 216.415C1128.61 216.908 1130.7 218.951 1131.96 221.619C1133.25 224.337 1133.78 227.891 1132.99 231.807L1132.92 232.121C1131.57 238.07 1126.54 240.553 1122.43 240.305C1123.53 241.389 1124.44 242.515 1125.15 243.705L1125.15 243.705L1125.44 244.214C1126.81 246.76 1127.21 249.378 1127.03 252.059L1127.03 252.07L1127.02 252.079L1126.98 252.604L1126.98 252.616L1126.98 252.626C1126.45 258.025 1122.45 262.028 1117.57 263.714L1117.1 263.87C1112.57 265.281 1107.17 264.835 1102.25 261.828C1097.16 265.897 1091.91 267.288 1087.29 266.545L1086.82 266.462C1081.77 265.483 1077.87 261.961 1076.47 257.488L1076.46 257.474L1076.46 257.46L1076.35 257.077L1076.34 257.052C1075.29 253.203 1075.58 250.02 1077.17 246.815L1077.45 246.268C1077.83 245.562 1078.28 244.855 1078.77 244.141C1074.76 245.149 1069.31 243.6 1066.92 237.934L1066.8 237.636C1065.34 233.917 1065.25 230.325 1066.04 227.425C1066.82 224.578 1068.52 222.201 1070.84 221.291C1072.18 220.766 1073.57 220.966 1074.8 221.464C1075.99 221.945 1077.14 222.748 1078.18 223.691C1077.62 222.361 1077.23 220.816 1077.07 219.041C1076.73 215.202 1078.02 210.819 1080.22 207.329C1082.42 203.865 1085.74 200.945 1089.73 200.595ZM1096.75 241.308C1094.49 241.434 1092.09 242.638 1090.84 245.606C1089.49 248.807 1090.96 251.722 1093.12 253.924C1095.28 256.134 1098.43 257.979 1101.4 259.332L1102.21 259.7L1102.93 259.164C1104.08 258.293 1107.02 256.135 1109.2 253.511C1110.29 252.199 1111.28 250.668 1111.72 249.024C1112.18 247.32 1112.04 245.491 1110.85 243.801L1110.67 243.547C1108.75 240.979 1106.25 240.329 1104.08 240.685C1103.01 240.861 1102.04 241.275 1101.28 241.766C1101.07 241.898 1100.87 242.045 1100.68 242.201C1100.39 242.037 1100.1 241.896 1099.8 241.782C1098.9 241.437 1097.84 241.247 1096.75 241.308ZM1082.06 228.46C1082.58 229.337 1083.03 230.23 1083.37 231.103C1084.21 233.23 1084.52 235.409 1084.29 237.383L1084.39 237.274C1085.07 236.454 1085.75 235.503 1086.53 234.404L1087.2 233.468C1087.89 232.511 1088.65 231.499 1089.48 230.542L1089.84 230.14C1089.57 230.185 1089.31 230.22 1089.05 230.243C1086.87 230.434 1084.29 229.964 1082.06 228.46Z" fill="#F2662B"/>
<path d="M478.753 557.071L478.767 557.069L478.779 557.069C487.372 556.544 493.441 560.851 497.753 565.311L498.162 565.74C500.186 567.891 501.899 570.135 503.287 571.896L503.837 572.589C504.366 573.251 504.838 573.821 505.276 574.3L505.692 574.735C505.944 574.988 506.149 575.169 506.312 575.295L506.525 575.445L506.537 575.452L507.687 576.174L507.694 576.178L507.7 576.181C513.435 579.856 517.392 583.558 519.81 587.616L520.036 588.004C522.317 592.017 522.989 596.153 522.693 600.5L522.691 600.521L522.621 601.374L522.621 601.384L522.62 601.395C521.831 609.509 515.78 615.689 508.148 618.329L507.405 618.573C499.978 620.889 490.962 620.017 482.868 614.557C474.287 621.849 465.576 624.203 458.143 623.014L457.402 622.884C449.853 621.419 444.028 616.289 441.744 609.803L441.534 609.171L441.53 609.158L441.526 609.145L441.348 608.537L441.344 608.524L441.34 608.509C439.697 602.468 440.159 597.629 442.594 592.715L442.815 592.281C445.142 587.796 449.087 583.26 453.977 577.653L454.502 577.036C455.706 575.583 456.892 573.918 458.197 572.089L459.321 570.521C460.473 568.93 461.708 567.284 463.049 565.735L463.734 564.962C467.226 561.124 471.706 557.733 477.95 557.134L477.975 557.132L478.753 557.071ZM473.794 583.553C470.34 583.745 466.67 585.569 464.73 590.168C462.691 594.998 464.849 599.476 468.357 603.061C471.873 606.652 477.039 609.698 482.003 611.954L482.815 612.322L483.527 611.786C485.49 610.305 490.338 606.741 493.922 602.427C495.713 600.271 497.279 597.824 497.967 595.259C498.671 592.633 498.451 589.876 496.657 587.316L496.369 586.919C493.366 582.909 489.556 581.95 486.256 582.49C484.602 582.762 483.105 583.402 481.92 584.162C481.385 584.505 480.886 584.894 480.453 585.307C479.87 584.894 479.203 584.55 478.509 584.283C477.132 583.753 475.489 583.459 473.794 583.553ZM430.466 549.763C432.394 549.006 434.458 549.272 436.378 550.049C438.299 550.827 440.205 552.163 441.959 553.773C445.462 556.988 448.604 561.523 450.25 565.711C451.902 569.915 452.271 574.193 451.386 577.798C450.497 581.416 448.31 584.422 444.856 585.78C438.48 588.285 428.589 586.276 424.441 576.44L424.248 575.966C421.863 569.896 421.724 564.071 422.998 559.41C424.258 554.803 426.97 551.137 430.466 549.763ZM517.324 542.912C519.08 541.811 521.066 541.189 523.095 541.599C526.778 542.343 530.087 545.481 532.13 549.799C534.197 554.166 535.074 559.926 533.783 566.318L533.676 566.819C531.305 577.227 521.914 580.928 515.199 579.572C511.561 578.837 508.884 576.257 507.379 572.849C505.879 569.454 505.498 565.176 506.392 560.749C507.284 556.338 509.588 551.327 512.477 547.55C513.924 545.66 515.568 544.012 517.324 542.912ZM462.002 514.967C466.408 514.58 469.465 517.955 471.433 522.176C473.443 526.486 474.649 532.296 475.167 538.194C475.935 546.948 474.338 552.968 471.432 556.912C468.512 560.876 464.423 562.535 460.676 562.864C456.957 563.19 452.505 562.303 448.803 559.49C445.062 556.648 442.229 551.946 441.612 544.927C441.068 538.725 443.146 531.563 446.77 525.835C450.377 520.133 455.741 515.516 462.002 514.967ZM486.051 514.514C497.252 513.531 508.702 527.476 509.722 539.101C510.89 552.406 502.246 557.861 495.437 558.459C488.629 559.056 479.994 555.117 478.497 538.053C477.476 526.429 479.243 515.111 486.051 514.514Z" fill="#F2662B"/>
<path d="M124.363 288.434C127.781 289.69 128.815 293.26 128.802 296.886C128.789 300.611 127.709 305.104 126.127 309.409C123.77 315.819 120.634 319.577 117.213 321.429C116.912 321.591 116.61 321.737 116.309 321.869C118.06 321.844 119.883 322.105 121.759 322.777L121.781 322.785L122.358 323.003L122.372 323.008L122.384 323.013C128.815 325.574 131.736 330.791 133.313 335.412L133.6 336.294C134.24 338.344 134.669 340.332 135.03 341.891L135.333 343.15C135.429 343.529 135.522 343.869 135.616 344.173L135.617 344.174C135.765 344.651 135.886 344.937 135.966 345.095L136.032 345.212L136.039 345.223L136.608 346.109L136.616 346.121L136.746 346.332C136.605 345.592 136.543 344.826 136.562 344.047C136.632 341.103 137.802 337.926 139.915 335.083C142.019 332.253 145.313 329.478 148.614 327.769C150.267 326.912 151.997 326.285 153.637 326.087C155.278 325.89 156.967 326.11 158.342 327.132C160.784 328.947 162.086 332.347 162.094 336.096C162.102 339.901 160.795 344.281 157.753 348.374L157.508 348.696C152.306 355.345 144.32 354.839 139.95 351.591C139.727 351.425 139.516 351.25 139.315 351.067C140.484 353.634 141.186 356.047 141.414 358.378L141.47 359.096C141.671 362.655 140.745 365.784 139.113 368.716L139.102 368.735L138.768 369.315L138.757 369.334C135.374 375.021 128.829 377.417 122.432 376.732L121.813 376.656C115.8 375.824 109.751 372.276 105.78 365.905C97.4636 368.038 90.5726 366.802 85.6765 363.462L85.1884 363.117C80.2116 359.477 77.7166 353.749 78.2786 348.221L78.3428 347.687L78.3461 347.661L78.423 347.166L78.4276 347.137C79.2911 342.229 81.2852 338.848 84.7404 336.106L85.3554 335.636C86.6779 334.662 88.1899 333.771 89.8732 332.899C89.5862 332.911 89.2953 332.909 89.0007 332.889C83.5671 332.534 77.1554 327.747 77.4987 319.311L77.5204 318.907C77.8535 313.818 79.6949 309.635 82.1654 306.741C84.6 303.89 87.7937 302.143 90.8299 302.342C92.54 302.454 93.9694 303.38 95.0912 304.593C96.2129 305.806 97.1243 307.404 97.8294 309.128C99.2371 312.568 99.9497 316.816 99.7194 320.334C99.488 323.869 98.3217 327.048 96.4683 329.337C96.2427 329.615 96.0054 329.881 95.7584 330.133C96.4164 329.841 97.0907 329.545 97.7805 329.243L98.3401 328.988C99.6274 328.384 100.978 327.625 102.495 326.774L103.796 326.048C105.13 325.311 106.554 324.556 108.024 323.904L108.771 323.584C109.453 323.301 110.156 323.039 110.878 322.809C109.67 322.723 108.52 322.456 107.47 322.07C104.7 321.052 101.811 318.919 100.106 315.654C98.3789 312.346 97.9487 308.031 99.853 302.851C101.541 298.26 105.399 293.889 109.86 291.049C114.294 288.226 119.671 286.709 124.363 288.434ZM110.079 340.179C107.497 339.135 104.195 339.212 101.222 341.881C98.0615 344.719 98.1344 348.729 99.4248 352.439C100.638 355.925 103.031 359.536 105.58 362.625L106.091 363.237L106.669 363.915L107.542 363.734C109.391 363.347 113.984 362.444 117.945 360.591C119.924 359.665 121.871 358.445 123.239 356.827C124.648 355.161 125.439 353.065 125.008 350.574L124.936 350.189C124.13 346.275 121.689 344.258 119.091 343.518C117.798 343.15 116.495 343.105 115.377 343.252C114.969 343.305 114.562 343.388 114.174 343.5C113.91 343.078 113.595 342.678 113.249 342.317C112.43 341.461 111.339 340.689 110.079 340.179ZM141.178 296.337C149.318 299.33 152.73 312.824 149.625 321.272C146.07 330.942 138.245 331.91 133.297 330.091C128.349 328.272 123.617 322.687 128.175 310.286C131.281 301.838 136.23 294.519 141.178 296.337Z" fill="#F2662B"/>
</svg>
